<?xml version="1.0" standalone="no"?>
<!DOCTYPE svg PUBLIC "-//W3C//DTD SVG 20010904//EN"
 "http://www.w3.org/TR/2001/REC-SVG-20010904/DTD/svg10.dtd">
<svg version="1.0" xmlns="http://www.w3.org/2000/svg"
 width="393.000000pt" height="387.000000pt" viewBox="0 0 393.000000 387.000000"
 preserveAspectRatio="xMidYMid meet">

<g transform="translate(0.000000,387.000000) scale(0.100000,-0.100000)"
fill="#000000" stroke="none">
<path d="M1714 3859 c-38 -4 -113 -18 -165 -30 -51 -12 -106 -23 -121 -23 -14
-1 -24 -4 -22 -7 2 -4 -8 -10 -24 -14 -15 -3 -79 -27 -142 -52 -574 -228
-1002 -718 -1155 -1321 -70 -279 -74 -630 -10 -904 26 -112 25 -111 91 -75
143 78 169 89 266 111 15 4 50 26 78 51 59 52 90 67 180 84 71 14 118 26 258
67 106 31 114 45 57 95 -86 76 -143 278 -131 469 12 207 18 241 50 273 22 22
23 30 29 238 6 225 15 275 69 411 30 76 108 158 223 234 50 33 117 78 150 101
234 158 290 182 480 198 75 6 103 2 265 -40 172 -44 256 -78 385 -155 109 -66
146 -106 248 -272 41 -66 62 -109 93 -190 33 -86 34 -90 34 -246 0 -87 -7
-211 -15 -276 l-14 -119 24 -29 c28 -33 28 -33 16 -208 -10 -135 -45 -284 -86
-355 -13 -24 -25 -66 -29 -107 l-6 -66 32 -7 c62 -13 173 -72 216 -113 25 -25
51 -42 65 -42 44 0 132 -32 262 -95 143 -70 165 -88 204 -168 23 -47 135 -168
145 -156 2 2 16 36 31 76 16 41 32 70 38 66 6 -3 7 -1 3 5 -4 7 4 47 18 91 61
194 86 358 86 580 0 220 -28 404 -91 598 -11 35 -17 68 -13 74 4 7 3 9 -3 6
-6 -4 -18 14 -28 41 -77 206 -227 438 -402 622 -207 218 -512 411 -785 496
-32 9 -54 22 -51 27 3 6 1 7 -6 3 -6 -4 -51 2 -99 14 -48 12 -134 28 -192 36
-113 15 -390 17 -506 3z"/>
<path d="M1712 3576 c2 -1 12 -8 22 -16 11 -8 17 -10 13 -3 -5 7 2 13 20 16
17 2 11 4 -15 4 -23 0 -41 -1 -40 -1z"/>
<path d="M1815 3540 c-3 -6 1 -7 9 -4 18 7 21 14 7 14 -6 0 -13 -4 -16 -10z"/>
<path d="M1650 3521 c0 -7 -5 -9 -12 -5 -7 4 -10 4 -6 -1 4 -4 3 -15 -4 -24
-7 -9 -1 -6 12 6 13 12 21 26 17 29 -4 4 -7 2 -7 -5z"/>
<path d="M1712 3514 c9 -9 21 -15 27 -13 6 2 -2 10 -17 17 -25 11 -25 11 -10
-4z"/>
<path d="M1560 3510 c0 -5 6 -10 13 -10 9 0 8 -3 -2 -9 -9 -6 -10 -11 -3 -15
18 -11 2 -34 -19 -29 -10 3 -16 10 -12 16 4 7 0 8 -11 4 -10 -4 -21 -7 -26 -7
-4 0 -6 -9 -3 -20 6 -21 28 -27 38 -10 3 6 11 10 16 10 6 0 8 -4 4 -9 -3 -5 0
-13 6 -17 8 -5 9 -3 4 6 -6 10 -4 12 10 6 10 -4 28 0 42 9 18 12 28 13 37 6
10 -8 17 -7 26 4 11 13 8 15 -16 15 -27 0 -27 1 -8 15 10 8 14 15 7 15 -6 0
-19 -10 -27 -22 -13 -18 -16 -19 -21 -5 -4 8 -13 13 -21 10 -20 -7 -17 14 4
27 16 11 16 11 0 6 -10 -3 -18 -1 -18 4 0 6 -4 10 -10 10 -5 0 -10 -4 -10 -10z"/>
<path d="M1988 3493 c7 -3 16 -2 19 1 4 3 -2 6 -13 5 -11 0 -14 -3 -6 -6z"/>
<path d="M1960 3480 c8 -5 20 -10 25 -10 6 0 3 5 -5 10 -8 5 -19 10 -25 10 -5
0 -3 -5 5 -10z"/>
<path d="M2028 3483 c7 -3 16 -2 19 1 4 3 -2 6 -13 5 -11 0 -14 -3 -6 -6z"/>
<path d="M2158 3423 c7 -3 16 -2 19 1 4 3 -2 6 -13 5 -11 0 -14 -3 -6 -6z"/>
<path d="M1437 3413 c-4 -3 -7 -15 -7 -26 0 -19 1 -19 18 -4 10 10 22 14 26
10 4 -4 4 0 0 10 -6 17 -25 23 -37 10z"/>
<path d="M2205 3390 c-4 -6 -15 -8 -24 -5 -11 3 -18 0 -18 -9 0 -10 7 -12 30
-5 36 10 42 15 28 23 -5 4 -13 2 -16 -4z"/>
<path d="M2260 3355 c-7 -9 -8 -15 -2 -15 5 0 12 7 16 15 3 8 4 15 2 15 -2 0
-9 -7 -16 -15z"/>
<path d="M2286 3351 c-3 -5 1 -11 9 -14 9 -4 12 -1 8 9 -6 16 -10 17 -17 5z"/>
<path d="M1359 3303 c-11 -15 -11 -16 0 -6 7 6 20 9 29 6 10 -4 13 -2 8 5 -10
17 -21 15 -37 -5z"/>
<path d="M1535 2710 c-3 -5 1 -10 9 -10 8 0 18 5 21 10 3 6 -1 10 -9 10 -8 0
-18 -4 -21 -10z"/>
<path d="M1638 2693 c7 -3 16 -2 19 1 4 3 -2 6 -13 5 -11 0 -14 -3 -6 -6z"/>
<path d="M1488 2673 c7 -3 16 -2 19 1 4 3 -2 6 -13 5 -11 0 -14 -3 -6 -6z"/>
<path d="M1520 2671 c0 -5 -10 -12 -22 -15 -13 -2 3 -3 35 -2 32 2 82 -4 110
-12 78 -22 127 -26 140 -12 9 10 9 11 0 6 -7 -4 -13 -2 -13 3 0 6 -9 11 -21
11 -11 0 -18 4 -15 9 3 5 -1 12 -10 15 -22 9 -26 8 -18 -5 4 -8 1 -8 -13 -1
-20 11 -106 9 -145 -4 -14 -4 -18 -2 -14 5 4 6 2 11 -3 11 -6 0 -11 -4 -11 -9z"/>
<path d="M1361 2651 c-10 -6 -9 -10 3 -14 8 -3 18 -2 21 3 8 13 -9 20 -24 11z"/>
<path d="M1418 2653 c7 -3 16 -2 19 1 4 3 -2 6 -13 5 -11 0 -14 -3 -6 -6z"/>
<path d="M2170 2630 c0 -5 -12 -10 -26 -10 -14 0 -22 -4 -19 -10 3 -5 -1 -20
-10 -34 l-16 -24 63 0 c35 0 71 5 81 10 13 6 23 5 35 -4 13 -11 14 -11 8 1 -7
10 -3 12 13 6 11 -3 21 -2 21 3 0 6 8 8 18 6 9 -2 37 0 62 5 l45 9 -43 1 c-24
1 -41 5 -38 10 9 14 -16 20 -36 9 -12 -5 -18 -5 -18 2 0 5 -9 10 -20 10 -11 0
-20 5 -20 10 0 6 -12 10 -26 10 -14 0 -23 -4 -19 -10 8 -13 -11 -13 -36 0 -13
7 -19 7 -19 0z m118 -27 c-10 -2 -28 -2 -40 0 -13 2 -5 4 17 4 22 1 32 -1 23
-4z"/>
<path d="M2475 2580 c4 -6 -3 -10 -15 -10 -13 0 -20 -5 -17 -12 2 -7 14 -12
26 -11 12 2 24 -3 27 -11 3 -8 13 -12 25 -9 13 4 19 1 17 -8 -2 -9 4 -13 14
-11 12 2 16 -2 12 -11 -3 -8 2 -14 11 -14 23 0 18 10 -22 47 -39 35 -88 67
-78 50z"/>
<path d="M1510 2550 c0 -6 11 -8 28 -4 15 4 24 3 19 -1 -11 -13 -80 -35 -89
-29 -4 3 -8 1 -8 -4 0 -5 -12 -15 -27 -23 -30 -15 -86 -68 -75 -70 32 -6 52
-4 52 5 0 7 3 7 8 1 4 -5 18 -10 32 -11 14 -1 34 -5 44 -9 14 -6 17 -5 12 3
-5 8 -2 10 8 6 9 -3 16 -11 16 -16 0 -6 6 -6 14 1 12 10 14 8 10 -11 -5 -21
-4 -21 6 -5 9 14 15 15 25 7 10 -8 15 -8 20 0 5 8 11 5 21 -7 8 -11 13 -13 14
-5 0 7 13 12 33 12 l32 -1 -32 -14 c-38 -16 -45 -29 -9 -15 18 6 34 4 60 -9
19 -10 32 -22 28 -26 -4 -5 -1 -5 6 -1 7 5 11 14 8 21 -2 7 6 23 20 36 l24 23
-6 -35 c-4 -20 -3 -31 2 -26 5 5 9 12 9 15 0 4 5 14 10 22 6 8 10 28 11 43 0
25 -2 28 -24 22 -17 -4 -30 0 -44 14 -10 12 -15 21 -11 21 4 0 0 5 -10 11 -9
6 -15 14 -12 19 3 6 -9 19 -27 30 -26 16 -50 20 -115 20 -50 0 -83 -4 -83 -10z
m-13 -90 c13 -34 7 -37 -25 -14 -18 13 -21 19 -11 30 17 20 23 18 36 -16z
m171 -4 c-2 -11 -11 -22 -21 -24 -16 -3 -17 -1 -7 17 6 12 8 26 5 31 -3 6 1 7
10 4 9 -4 15 -15 13 -28z m-104 9 c-4 -10 0 -15 11 -15 9 0 13 -4 10 -10 -10
-16 -41 -11 -59 9 -17 19 -17 19 5 14 15 -4 20 -3 15 5 -4 7 -1 12 8 12 10 0
13 -6 10 -15z m151 5 c-3 -5 2 -10 13 -10 10 0 29 -11 42 -25 32 -34 18 -32
-36 5 -48 33 -52 40 -28 40 8 0 12 -4 9 -10z m35 -114 c-8 -8 -13 -7 -20 4
-12 20 -1 33 16 19 11 -9 12 -15 4 -23z"/>
<path d="M1425 2534 c-16 -9 -38 -32 -48 -52 l-18 -37 38 43 c21 23 46 42 55
42 9 0 20 5 23 10 9 14 -15 11 -50 -6z"/>
<path d="M2155 2501 c10 -9 -38 -39 -53 -33 -15 5 -15 4 1 -12 10 -10 15 -21
11 -25 -4 -3 -9 0 -11 7 -3 6 -12 12 -20 12 -15 0 -15 -5 -1 -97 1 -7 5 -13 9
-13 5 0 19 -12 32 -26 16 -17 27 -22 31 -15 4 6 25 11 46 11 45 0 61 17 35 37
-18 12 -18 13 1 13 11 0 25 -5 31 -11 8 -8 17 -8 31 0 13 7 22 7 24 1 4 -12
48 -22 48 -12 0 4 10 9 23 10 22 2 57 9 67 12 12 5 56 -3 65 -11 5 -5 14 -9
20 -9 5 0 3 5 -5 10 -8 5 -15 15 -16 22 -1 24 -15 58 -25 58 -5 0 -9 -5 -9
-11 0 -6 -7 -4 -15 5 -8 8 -15 21 -15 29 0 22 -159 59 -242 55 -37 -1 -65 -4
-63 -7z m91 -71 c0 -11 -6 -20 -13 -20 -14 0 -18 22 -6 33 12 12 19 7 19 -13z
m-67 6 c-2 -2 -15 -9 -29 -15 -24 -11 -24 -11 -6 3 16 13 49 24 35 12z m161 0
c0 -7 -50 -13 -55 -7 -2 4 10 8 26 9 16 1 29 1 29 -2z m90 -20 c0 -12 -39 -40
-46 -33 -3 2 0 16 7 30 11 25 39 27 39 3z m-86 -5 c3 -5 -3 -11 -14 -14 -11
-3 -23 0 -27 5 -3 6 -1 8 5 4 6 -3 13 -2 17 4 8 12 12 13 19 1z m-214 -62 c0
-5 -8 -9 -17 -8 -11 0 -13 3 -5 6 6 2 9 10 6 15 -4 7 -2 8 4 4 7 -4 12 -11 12
-17z m27 -21 c-3 -8 -6 -5 -6 6 -1 11 2 17 5 13 3 -3 4 -12 1 -19z"/>
<path d="M2475 2440 c3 -5 8 -10 11 -10 2 0 4 5 4 10 0 6 -5 10 -11 10 -5 0
-7 -4 -4 -10z"/>
<path d="M1738 2303 c7 -3 16 -2 19 1 4 3 -2 6 -13 5 -11 0 -14 -3 -6 -6z"/>
<path d="M2178 2293 c12 -2 30 -2 40 0 9 3 -1 5 -23 4 -22 0 -30 -2 -17 -4z"/>
<path d="M1040 2175 c0 -5 8 -23 19 -38 20 -31 32 -19 21 23 -4 18 -8 21 -14
11 -7 -11 -10 -11 -17 0 -5 8 -9 10 -9 4z"/>
<path d="M13 2000 c0 -25 2 -35 4 -22 2 12 2 32 0 45 -2 12 -4 2 -4 -23z"/>
<path d="M1829 1941 c-13 -5 -14 -9 -5 -17 11 -10 51 -12 61 -2 9 9 -39 25
-56 19z"/>
<path d="M2070 1907 c-19 -13 -54 -31 -78 -40 -41 -16 -43 -16 -64 5 -19 19
-34 22 -100 23 -43 0 -78 -1 -78 -3 0 -1 8 -15 18 -29 9 -15 11 -24 5 -20 -7
5 -13 4 -13 -2 0 -5 8 -15 18 -20 11 -7 13 -10 3 -11 -11 0 -11 -3 0 -17 12
-15 12 -16 -3 -10 -12 4 -15 2 -11 -9 3 -8 12 -13 19 -10 38 16 48 18 42 11
-10 -10 11 -37 23 -29 5 3 9 11 9 17 0 8 -3 8 -9 -2 -6 -9 -11 -10 -15 -2 -9
14 43 26 56 13 6 -6 11 -22 11 -36 0 -19 6 -26 27 -31 34 -7 80 10 80 30 0 9
7 18 15 21 8 4 12 10 9 15 -3 5 4 9 15 9 11 0 23 5 26 10 3 6 18 10 31 10 16
0 24 5 21 13 -2 6 -12 11 -21 9 -12 -2 -6 7 16 28 l33 31 -37 -3 c-47 -5 -58
16 -20 36 15 9 22 15 17 16 -6 0 -26 -10 -45 -23z m-234 -115 c-10 -2 -22 0
-28 6 -6 6 0 7 19 4 21 -5 23 -7 9 -10z"/>
<path d="M13 1880 c0 -25 2 -35 4 -22 2 12 2 32 0 45 -2 12 -4 2 -4 -23z"/>
<path d="M2108 1768 c12 -12 25 -19 28 -15 4 4 -1 14 -12 22 -29 22 -41 18
-16 -7z"/>
<path d="M1736 1753 c-6 -14 -5 -15 5 -6 7 7 10 15 7 18 -3 3 -9 -2 -12 -12z"/>
<path d="M2058 1763 c6 -2 18 -2 25 0 6 3 1 5 -13 5 -14 0 -19 -2 -12 -5z"/>
<path d="M1266 1698 c3 -5 10 -6 15 -3 13 9 11 12 -6 12 -8 0 -12 -4 -9 -9z"/>
<path d="M1620 1632 c0 -14 97 -35 192 -41 9 -1 19 -9 21 -18 4 -16 5 -16 6
-2 1 11 9 16 25 15 20 -1 22 -4 13 -15 -10 -12 -9 -13 3 -6 8 5 38 10 65 12
28 1 64 4 80 7 17 2 61 9 99 16 48 7 72 8 80 0 5 -5 28 -10 50 -10 29 0 37 3
26 9 -27 18 -111 23 -373 25 -144 1 -268 5 -274 9 -7 5 -13 4 -13 -1z"/>
<path d="M1173 1591 c10 -12 9 -13 -2 -7 -18 11 -33 -14 -19 -31 8 -10 7 -12
-5 -8 -8 4 -18 1 -23 -6 -4 -8 -3 -10 4 -5 7 4 12 2 12 -3 0 -6 -4 -11 -10
-11 -5 0 -9 -3 -8 -7 4 -16 -13 -51 -27 -57 -8 -3 -15 -12 -15 -20 0 -8 -8
-20 -17 -26 -13 -8 -14 -13 -6 -16 15 -7 -1 -44 -23 -57 -8 -4 -14 -15 -14
-22 0 -8 -8 -15 -17 -15 -10 0 -44 -13 -76 -30 -52 -26 -57 -27 -52 -10 7 22
-2 25 -25 10 -12 -8 -13 -13 -3 -29 6 -10 9 -21 6 -24 -9 -9 -34 21 -36 43 -1
11 -5 20 -10 20 -5 0 -5 9 -2 20 9 28 -4 25 -14 -2 -6 -16 -4 -26 6 -33 8 -6
15 -24 17 -40 1 -18 7 -29 15 -27 7 1 10 -2 6 -8 -3 -6 -11 -7 -17 -4 -6 4
-18 -3 -27 -14 -10 -13 -30 -22 -51 -24 -29 -3 -35 1 -38 18 -2 16 -8 20 -23
17 -25 -7 -24 -22 3 -32 12 -4 17 -10 11 -14 -5 -3 -20 -1 -34 6 -13 7 -48 10
-79 8 l-55 -4 80 -11 c59 -8 80 -15 80 -26 0 -8 -9 -16 -19 -18 -14 -3 -17 0
-13 12 4 9 2 16 -3 16 -6 0 -10 -4 -10 -9 0 -6 -8 -10 -17 -9 -10 0 -58 -2
-108 -5 -49 -3 -124 -3 -165 1 -41 4 -88 5 -105 1 -35 -6 149 -26 203 -21 22
2 32 -1 27 -7 -3 -7 0 -8 9 -5 9 3 16 1 16 -4 0 -6 -9 -14 -21 -17 -11 -4 -18
-13 -15 -20 3 -8 -2 -12 -12 -10 -9 2 -19 4 -21 4 -2 1 4 11 15 23 l19 22 -26
-20 c-15 -11 -22 -22 -17 -25 13 -8 1 -29 -15 -29 -7 0 -18 -9 -24 -20 -11
-17 -10 -18 5 -13 15 6 15 5 3 -11 -8 -9 -21 -14 -30 -11 -12 5 -12 2 2 -13 9
-10 14 -22 10 -26 -10 -10 -13 -36 -3 -36 4 0 13 -14 19 -31 6 -17 25 -49 43
-72 l33 -41 7 29 c6 28 6 27 5 -7 -1 -40 36 -93 56 -81 6 4 7 1 3 -6 -8 -13
95 -121 194 -203 134 -110 340 -234 487 -294 39 -16 69 -33 66 -38 -4 -5 -1
-6 5 -2 16 10 123 -25 115 -37 -3 -6 -1 -7 6 -3 6 4 48 -2 94 -13 288 -70 622
-70 914 0 46 11 88 17 94 13 7 -4 9 -3 6 3 -8 12 99 47 115 37 6 -4 8 -3 5 3
-4 6 25 22 66 38 152 59 437 231 422 255 -3 5 0 7 8 4 8 -3 23 6 34 20 11 14
22 23 24 21 3 -2 40 29 82 68 49 45 79 80 80 94 1 14 5 19 11 13 11 -11 54 35
126 132 46 62 48 67 29 73 -20 7 -20 7 -2 21 14 11 15 13 3 14 -13 0 -13 1 0
10 8 5 11 10 5 11 -5 0 -23 2 -40 4 -16 1 -24 1 -17 -2 6 -2 12 -10 12 -17 0
-27 -25 -66 -40 -60 -11 4 -12 2 -3 -7 13 -13 -2 -69 -19 -69 -5 0 -7 -4 -4
-9 3 -5 -1 -14 -9 -21 -8 -7 -12 -17 -8 -23 3 -6 1 -7 -6 -3 -9 6 -9 11 0 22
9 11 7 15 -6 21 -16 6 -16 7 3 14 12 5 22 13 22 19 0 6 -4 8 -10 5 -14 -9 -12
29 2 43 9 9 9 12 -3 13 -7 1 -3 4 11 8 17 5 26 15 28 34 2 15 13 34 25 42 13
9 16 15 7 15 -9 0 -8 4 6 14 12 9 19 27 19 50 1 28 -3 36 -21 40 -32 8 -51 -2
-64 -35 -7 -16 -18 -28 -24 -26 -19 7 -48 -13 -42 -29 3 -8 1 -12 -4 -9 -5 3
-13 -7 -16 -22 -6 -22 -8 -24 -14 -9 -8 24 -24 22 -30 -6 -4 -15 -14 -23 -28
-24 -12 -1 -22 3 -22 8 0 5 9 6 20 3 21 -7 28 9 8 21 -6 4 -19 -3 -30 -16 -10
-12 -20 -21 -21 -19 -22 40 -27 50 -18 44 6 -3 11 -1 11 4 0 6 -5 11 -10 11
-6 0 -9 3 -9 8 1 4 0 9 -1 12 -1 3 -4 19 -6 35 -3 17 -11 39 -18 50 -7 11 -12
28 -10 38 1 9 -2 17 -7 17 -6 0 -8 4 -4 9 3 5 -5 11 -17 13 -24 5 -16 8 62 25
24 5 25 5 4 13 -12 5 -25 13 -29 19 -3 6 -12 11 -18 11 -7 0 -1 -9 12 -19 l23
-18 -36 -1 c-26 -1 -38 4 -46 18 -9 17 -6 21 22 29 32 10 31 10 -14 8 -41 -2
-45 0 -37 16 6 11 6 17 -1 17 -5 0 -10 14 -10 30 0 17 -5 30 -12 30 -8 0 -9 3
-3 8 16 11 15 41 -1 35 -8 -3 -14 -1 -14 5 0 6 6 13 13 15 7 3 5 6 -5 6 -10 1
-18 7 -18 15 0 20 -26 67 -34 61 -3 -3 -2 0 3 6 12 14 -7 39 -64 85 -11 8 -14
12 -6 8 9 -5 12 -3 7 5 -4 6 -12 9 -17 5 -6 -3 -18 0 -27 8 -9 8 -30 20 -47
28 -16 8 -34 16 -39 19 -5 2 -6 -2 -1 -9 6 -9 4 -11 -5 -5 -7 4 -26 8 -41 7
-16 0 -31 4 -34 9 -9 14 -25 11 -25 -5 0 -8 35 -34 78 -57 95 -53 164 -116
185 -169 9 -24 11 -40 5 -40 -6 0 -8 -6 -5 -13 3 -8 1 -20 -5 -28 -8 -11 -9
-11 -4 3 3 12 1 15 -10 11 -18 -7 -18 -6 9 -35 16 -17 31 -24 52 -22 25 3 27
2 10 -6 -11 -5 -15 -9 -10 -10 6 0 2 -5 -7 -11 -10 -5 -18 -15 -18 -22 0 -8 3
-8 8 -2 4 6 18 11 32 12 14 1 18 0 8 -3 -19 -6 -21 -13 -12 -38 3 -9 10 -13
15 -10 5 3 9 -2 9 -10 0 -12 -10 -16 -41 -16 -23 0 -38 4 -34 10 3 5 12 7 19
4 8 -3 17 -1 20 4 12 20 -25 21 -44 2 -11 -11 -15 -20 -9 -20 6 0 9 -7 5 -15
-3 -8 3 -19 12 -25 16 -11 15 -11 -1 -6 -10 3 -30 6 -43 6 -13 0 -24 5 -24 11
0 6 7 9 14 6 10 -4 13 -1 9 9 -6 17 -15 18 -30 3 -8 -8 -17 -8 -33 1 -18 10
-20 14 -9 21 10 6 7 8 -9 6 -12 0 -22 -5 -22 -9 0 -9 90 -78 102 -78 5 0 6 -5
3 -10 -4 -6 -16 -8 -28 -4 -12 3 -20 5 -17 3 3 -2 16 -13 29 -24 23 -19 24
-19 17 -1 -5 16 -4 17 9 6 20 -17 32 -5 15 15 -19 22 11 20 36 -3 10 -10 27
-21 37 -25 25 -9 12 -27 -18 -25 -13 1 -21 6 -19 10 3 4 0 8 -5 8 -6 0 -11 -6
-11 -12 0 -10 -2 -10 -8 -1 -10 15 -61 12 -55 -4 3 -7 10 -10 17 -6 6 4 5 0
-2 -9 -11 -14 -10 -18 7 -28 12 -6 21 -17 21 -25 0 -8 11 -26 25 -40 19 -18
22 -25 10 -25 -8 0 -15 5 -15 12 0 6 -3 8 -6 5 -4 -4 -2 -13 4 -20 7 -8 8 -18
4 -22 -4 -5 -1 -5 6 -1 7 4 12 1 12 -9 0 -9 5 -13 10 -10 6 3 10 1 10 -4 0
-20 2 -26 16 -46 8 -11 14 -27 14 -36 0 -9 7 -19 15 -23 8 -3 12 -12 9 -20 -3
-8 1 -16 10 -18 14 -3 14 -6 2 -29 -12 -24 -12 -26 3 -22 12 3 16 -4 18 -34 1
-21 -1 -33 -3 -27 -3 7 -14 9 -26 6 -14 -3 -19 -1 -14 6 4 7 1 12 -6 12 -9 0
-9 3 2 10 8 5 10 10 4 10 -7 0 -19 12 -29 26 -11 18 -13 24 -4 19 8 -5 6 1 -4
12 -9 11 -14 23 -10 26 3 4 0 7 -9 7 -20 0 -19 30 1 31 10 0 7 4 -8 10 -14 6
-21 15 -18 24 4 10 1 12 -10 8 -11 -4 -14 -2 -9 5 4 7 3 12 -2 12 -10 0 -27
47 -23 63 1 5 -3 6 -9 2 -10 -6 -31 34 -24 46 2 4 -3 12 -11 19 -8 7 -15 20
-15 29 0 9 -5 23 -11 31 -8 12 -9 10 -4 -8 6 -22 5 -23 -15 -12 -18 10 -20 14
-9 21 8 5 9 9 3 9 -6 0 -10 10 -9 23 1 12 -2 28 -8 35 -6 8 -6 12 2 12 7 0 8
6 2 18 -5 9 -14 31 -21 47 -7 17 -17 38 -22 49 -7 12 -6 16 1 11 6 -3 11 -1
11 4 0 6 -5 11 -11 11 -5 0 -8 4 -5 9 3 5 -1 14 -9 21 -8 7 -13 16 -10 20 3 4
-5 20 -17 35 -20 25 -20 27 -2 23 10 -2 23 -12 29 -23 5 -11 18 -21 27 -21 14
-1 15 2 5 17 -7 11 -15 19 -20 19 -10 0 -5 33 6 41 5 3 -4 14 -20 24 -26 17
-27 17 -13 1 19 -24 21 -46 4 -46 -9 0 -12 5 -8 12 4 7 3 8 -4 4 -6 -4 -23 -4
-38 0 -26 7 -26 8 -8 21 10 8 18 17 17 21 0 4 3 6 9 4 5 -1 7 2 4 7 -4 5 -20
12 -36 16 -17 4 -30 12 -30 20 0 7 -9 15 -20 18 -11 3 -18 1 -14 -4 3 -5 0 -9
-7 -9 -10 0 -10 -3 -2 -11 8 -8 7 -16 -5 -28 -15 -15 -18 -15 -29 -1 -10 13
-11 12 -7 -6 3 -12 -1 -28 -11 -38 -9 -9 -13 -16 -8 -16 4 0 0 -5 -9 -11 -10
-5 -18 -19 -18 -29 0 -16 -4 -18 -23 -11 -26 10 -57 -1 -38 -13 18 -11 13 -26
-13 -36 -17 -6 -26 -19 -31 -46 -3 -21 -17 -59 -30 -85 -13 -25 -21 -49 -18
-53 4 -3 2 -6 -4 -6 -6 0 -17 -20 -24 -45 -7 -25 -17 -45 -21 -45 -4 0 -8 -6
-8 -14 0 -8 -7 -16 -15 -20 -8 -3 -15 -12 -15 -21 0 -8 -5 -15 -11 -15 -5 0
-8 -4 -5 -8 3 -5 -5 -20 -18 -33 -13 -14 -29 -35 -35 -48 -7 -12 -27 -31 -44
-41 -18 -11 -27 -20 -22 -20 6 0 6 -3 0 -8 -6 -4 -21 -21 -33 -38 -12 -18 -30
-31 -39 -30 -10 0 -18 -6 -18 -14 0 -14 -33 -40 -46 -37 -4 1 -16 -6 -26 -16
-21 -18 -35 -14 -26 9 4 10 -3 13 -26 10 -17 -2 -28 0 -25 5 2 4 -5 13 -16 19
-14 8 -20 8 -20 0 0 -6 -7 -18 -15 -26 -8 -9 -15 -21 -15 -27 0 -7 7 -3 16 8
13 17 16 18 24 5 5 -8 9 -19 9 -25 0 -5 -3 -4 -6 3 -3 9 -13 6 -35 -10 -28
-20 -32 -20 -43 -5 -7 9 -17 17 -24 17 -6 0 -11 7 -11 15 0 8 -5 15 -12 15 -9
0 -9 3 0 12 7 7 12 16 12 21 0 5 -7 1 -16 -7 -8 -9 -21 -16 -27 -15 -9 0 -8 2
0 6 19 7 -4 46 -23 39 -7 -3 -13 -2 -12 2 0 4 -4 18 -10 32 -6 14 -11 21 -11
15 -1 -5 -8 3 -16 19 -8 15 -12 32 -9 37 3 5 -5 9 -17 9 -12 0 -19 3 -16 7 4
3 -7 19 -23 35 -34 32 -37 40 -12 32 9 -3 6 1 -8 9 -14 9 -25 19 -25 24 0 5
-15 27 -32 50 -18 22 -33 45 -33 51 0 6 -4 12 -8 14 -14 6 -51 110 -81 228
-10 41 -25 94 -34 117 -8 23 -12 53 -10 67 4 18 0 26 -16 31 -13 4 -21 15 -21
27 0 25 -13 16 -17 -12 -2 -13 4 -20 20 -22 12 -2 23 -11 25 -22 3 -13 0 -16
-9 -11 -8 6 -10 4 -4 -5 5 -8 -1 -20 -16 -32 -13 -11 -17 -16 -9 -12 12 6 13
5 2 -7 -11 -12 -14 -12 -22 1 -8 13 -10 12 -11 -2 -1 -10 -2 -23 -3 -30 0 -6
-7 -13 -14 -16 -9 -3 -10 3 -1 25 11 28 26 103 32 155 3 26 -11 33 -25 13 -5
-6 -8 -5 -8 3 0 6 -7 12 -16 12 -14 0 -14 3 -4 15 9 10 9 15 1 15 -6 0 -11 9
-11 21 0 11 -4 17 -10 14 -9 -6 -13 6 -13 46 0 9 -6 16 -13 16 -11 0 -11 -3
-1 -16z m1490 -217 c8 -8 -3 -34 -14 -34 -5 0 -9 6 -9 14 0 8 -6 17 -12 19 -7
3 -4 6 8 6 11 1 23 -2 27 -5z m-1358 -105 c1 -11 -1 -22 -5 -24 -3 -2 -7 10
-8 28 -2 17 1 28 5 24 4 -4 7 -17 8 -28z m-328 2 c-22 -8 -24 -20 -5 -33 10
-7 9 -8 -4 -4 -10 3 -18 1 -18 -4 0 -6 -5 -10 -11 -10 -8 0 -8 5 1 15 9 11 9
15 1 15 -6 0 -14 -6 -17 -14 -7 -19 -34 -29 -34 -13 0 14 68 56 90 56 11 0 10
-3 -3 -8z m266 -26 c-3 -9 -8 -14 -10 -11 -3 3 -2 9 2 15 9 16 15 13 8 -4z
m1247 -6 c0 -4 -7 -6 -15 -3 -8 4 -15 10 -15 15 0 4 7 6 15 3 8 -4 15 -10 15
-15z m-1612 -57 c-10 -2 -18 -8 -18 -13 0 -5 -5 -9 -10 -9 -7 0 -7 6 0 20 7
13 16 17 28 12 16 -6 16 -7 0 -10z m365 4 c3 -8 0 -19 -7 -25 -10 -9 -12 -6
-8 14 5 29 8 31 15 11z m-303 -6 c-8 -5 -11 -12 -8 -16 12 -11 -12 -46 -27
-40 -9 3 -12 0 -9 -9 3 -7 1 -23 -6 -34 -9 -17 -8 -21 5 -21 20 0 19 -17 -1
-28 -10 -5 -16 -23 -17 -45 0 -21 -5 -37 -9 -37 -5 0 -6 -11 -4 -23 2 -13 0
-30 -6 -38 -9 -13 -6 42 8 161 10 79 44 139 79 140 6 0 3 -4 -5 -10z m1598
-74 c10 -50 11 -71 2 -80 -8 -8 -11 -3 -10 19 0 47 -11 109 -24 124 -9 11 -8
13 4 9 9 -3 20 -31 28 -72z m-1710 30 c1 -20 -2 -23 -20 -18 -14 3 -19 1 -14
-6 8 -13 -10 -17 -56 -13 -16 1 -28 -3 -28 -9 0 -6 -5 -8 -10 -5 -8 5 -8 11
-1 19 6 7 8 16 4 19 -3 4 6 7 21 7 16 0 25 -4 21 -10 -3 -5 1 -10 10 -10 9 0
14 4 11 9 -7 11 12 27 39 34 11 2 20 5 20 6 0 0 2 -10 3 -23z m2213 -19 c-10
-9 -11 -8 -5 6 3 10 9 15 12 12 3 -3 0 -11 -7 -18z m-1813 -12 c-3 -3 -9 2
-12 12 -6 14 -5 15 5 6 7 -7 10 -15 7 -18z m1782 -4 c0 -6 -5 -13 -11 -17 -8
-4 -7 -9 2 -15 9 -6 10 -9 2 -9 -14 0 -43 27 -43 41 0 5 11 9 25 9 14 0 25 -4
25 -9z m64 -67 c-8 -6 -11 -14 -7 -17 3 -4 1 -7 -5 -7 -17 0 -15 20 3 26 8 4
12 10 9 15 -3 5 -10 7 -15 4 -5 -4 -9 1 -9 10 0 9 5 13 10 10 6 -3 10 0 11 7
1 7 4 2 9 -12 5 -17 3 -29 -6 -36z m-2447 37 c7 -1 9 -10 5 -23 -3 -12 -7 -17
-10 -10 -2 6 -8 12 -13 12 -4 0 -6 -7 -3 -15 4 -10 2 -13 -8 -10 -8 3 -21 -2
-29 -11 -13 -16 -12 -17 5 -10 19 7 19 6 2 -13 -17 -18 -17 -19 1 -24 10 -3 6
-4 -9 -4 -18 1 -24 5 -18 11 6 6 10 15 10 20 0 6 -5 5 -12 -2 -7 -7 -17 -12
-22 -12 -6 0 0 7 12 16 12 8 19 21 16 27 -4 7 -4 9 1 5 4 -4 14 -3 22 3 14 12
18 30 6 28 -5 -1 -15 -1 -23 0 -12 1 -12 3 -2 9 7 5 23 7 35 6 12 -1 27 -3 34
-3z m680 -13 c-3 -8 -6 -5 -6 6 -1 11 2 17 5 13 3 -3 4 -12 1 -19z m48 -17 c3
-5 2 -12 -3 -15 -5 -3 -9 1 -9 9 0 17 3 19 12 6z m1205 -72 c0 -11 -2 -11 -10
1 -9 13 -10 13 -10 0 0 -9 7 -26 16 -38 12 -18 13 -23 2 -27 -9 -4 -13 -22
-12 -56 2 -55 8 -69 26 -51 9 9 9 12 -2 12 -13 0 -13 2 0 10 11 7 17 4 23 -12
4 -11 5 -23 2 -26 -3 -3 -5 0 -5 6 0 9 -5 9 -19 0 -11 -7 -17 -16 -14 -22 3
-5 1 -6 -5 -2 -5 3 -12 1 -14 -5 -2 -7 -10 -4 -18 7 -14 16 -13 17 3 11 11 -4
17 -2 17 8 0 8 -5 15 -10 15 -6 0 -8 12 -5 28 5 22 4 24 -5 10 -6 -10 -16 -18
-23 -18 -9 0 -9 2 1 8 21 14 34 73 19 91 -10 12 -9 13 3 6 13 -8 13 -7 1 8 -7
9 -9 17 -4 17 12 0 14 38 2 45 -5 4 -9 1 -9 -4 0 -6 -7 -11 -16 -11 -13 0 -14
3 -4 15 7 8 10 24 7 34 -4 15 3 12 29 -13 19 -18 34 -39 34 -47z m-1194 -7
c-3 -3 0 -12 7 -20 9 -13 9 -14 0 -8 -8 4 -13 2 -13 -6 0 -10 -2 -10 -9 1 -7
11 -8 25 -2 49 1 2 6 0 12 -3 6 -4 8 -10 5 -13z m1126 -50 c-2 -8 1 -18 9 -23
11 -7 11 -9 -2 -9 -11 0 -19 12 -23 31 -10 52 -7 67 8 40 8 -14 11 -31 8 -39z
m558 54 c0 -3 -4 -8 -10 -11 -5 -3 -10 -1 -10 4 0 6 5 11 10 11 6 0 10 -2 10
-4z m-2533 -23 c5 3 9 -2 9 -12 0 -14 -4 -15 -22 -7 -12 6 -19 16 -16 24 4 10
7 11 12 2 4 -7 12 -10 17 -7z m68 -13 c-3 -5 -12 -10 -18 -10 -7 0 -6 4 3 10
19 12 23 12 15 0z m142 -5 c0 -8 -5 -11 -10 -8 -6 3 -7 1 -3 -6 9 -13 26 -5
26 12 0 7 8 13 19 13 18 0 18 -2 2 -23 -9 -12 -24 -25 -34 -29 -14 -4 -15 -9
-7 -19 8 -10 7 -14 -2 -18 -10 -3 -10 -9 -1 -25 10 -16 9 -21 -2 -26 -12 -4
-15 5 -15 44 0 33 -4 50 -12 51 -10 0 -10 2 0 6 6 2 12 11 12 18 0 7 6 16 13
18 6 3 12 6 13 6 0 1 1 -6 1 -14z m611 -10 c-3 -3 -9 2 -12 12 -6 14 -5 15 5
6 7 -7 10 -15 7 -18z m-938 -10 c0 -14 -4 -25 -9 -25 -5 0 -8 11 -7 25 1 33
16 33 16 0z m2209 2 c0 -9 -2 -8 -6 1 -2 6 -10 9 -15 6 -7 -4 -8 -2 -4 5 9 13
26 5 25 -12z m418 8 c0 -8 -4 -12 -9 -9 -5 3 -6 10 -3 15 9 13 12 11 12 -6z
m-2232 -5 c-3 -5 -12 -10 -18 -10 -7 0 -6 4 3 10 19 12 23 12 15 0z m-308 -22
c-3 -8 -6 -5 -6 6 -1 11 2 17 5 13 3 -3 4 -12 1 -19z m2350 -8 c1 -11 -2 -20
-7 -20 -6 0 -7 17 -1 38 3 8 7 -1 8 -18z m-2062 0 c3 -6 -4 -10 -17 -10 -18 0
-20 2 -8 10 19 12 18 12 25 0z m599 1 c16 8 15 6 -4 -10 -22 -17 -23 -21 -8
-26 13 -5 15 -11 8 -25 -5 -9 -6 -21 -2 -25 4 -5 2 -5 -5 -1 -7 4 -10 13 -7
21 3 8 -1 22 -10 30 -9 9 -16 24 -16 33 0 12 3 13 12 4 8 -8 17 -8 32 -1z
m-519 -20 c3 -5 2 -12 -3 -15 -5 -3 -9 1 -9 9 0 17 3 19 12 6z m-400 -11 c-3
-5 -12 -10 -18 -10 -7 0 -6 4 3 10 19 12 23 12 15 0z m2205 -28 c0 -13 -2 -13
-13 3 -8 10 -19 15 -25 11 -6 -3 -13 -2 -16 3 -8 13 26 20 42 8 6 -5 12 -17
12 -25z m560 18 c0 -5 -2 -10 -4 -10 -3 0 -8 5 -11 10 -3 6 -1 10 4 10 6 0 11
-4 11 -10z m-2530 -21 c0 -11 -4 -18 -10 -14 -5 3 -7 12 -3 20 7 21 13 19 13
-6z m2160 -43 c0 -39 -6 -30 -13 19 -4 27 -3 35 3 25 5 -8 10 -28 10 -44z
m395 34 c3 -5 1 -10 -4 -10 -6 0 -11 5 -11 10 0 6 2 10 4 10 3 0 8 -4 11 -10z
m-775 -20 c0 -5 -4 -10 -10 -10 -5 0 -10 5 -10 10 0 6 5 10 10 10 6 0 10 -4
10 -10z m231 -85 c16 -49 29 -97 29 -107 0 -21 -23 -24 -39 -4 -13 15 -4 49
10 40 5 -3 9 -1 9 4 0 12 -30 37 -31 26 0 -5 -9 9 -19 31 -16 34 -17 41 -4 48
20 11 18 36 -3 32 -23 -3 -35 4 -27 16 3 6 15 9 26 7 16 -2 26 -23 49 -93z
m-1991 69 c0 -2 -7 -4 -15 -4 -8 0 -15 4 -15 10 0 5 7 7 15 4 8 -4 15 -8 15
-10z m660 -14 c-12 -8 -12 -10 -1 -10 11 0 11 -3 1 -15 -10 -12 -10 -15 4 -15
9 0 16 -7 16 -15 0 -13 -3 -13 -18 2 -25 24 -34 51 -19 57 21 8 32 6 17 -4z
m1110 -1 c11 -8 12 -12 3 -16 -23 -9 -26 -8 -29 10 -3 19 4 21 26 6z m48 -20
c7 -12 11 -24 8 -27 -3 -3 -6 0 -6 7 0 7 -4 9 -10 6 -5 -3 -10 -4 -10 -1 0 2
-3 11 -6 20 -9 23 9 20 24 -5z m98 -47 c-6 -6 -26 43 -25 61 0 7 7 -3 15 -22
8 -18 13 -36 10 -39z m631 21 c-3 -10 -5 -4 -5 12 0 17 2 24 5 18 2 -7 2 -21
0 -30z m-2420 5 c-3 -8 -6 -5 -6 6 -1 11 2 17 5 13 3 -3 4 -12 1 -19z m1749
-23 c1 -14 1 -25 -2 -25 -8 0 -22 45 -17 53 8 13 16 0 19 -28z m-50 6 c11 0
21 -7 21 -13 0 -7 4 -22 9 -32 6 -15 4 -17 -6 -11 -10 6 -12 4 -7 -9 4 -10 7
-24 7 -32 0 -8 5 -14 11 -14 6 0 8 9 4 21 -5 15 -3 20 6 17 8 -3 15 -14 17
-26 3 -22 22 -31 22 -11 0 5 5 7 10 4 23 -14 7 -26 -30 -22 -56 5 -78 27 -61
63 6 15 9 29 6 32 -3 3 -5 0 -5 -6 0 -7 -14 -10 -37 -7 -21 2 -41 4 -45 4 -5
1 -8 12 -8 25 0 21 4 24 33 22 17 -2 41 -4 53 -5z m-91 -108 c4 -48 -4 -137
-12 -130 -2 2 -5 19 -8 36 -2 18 -7 46 -10 62 -6 25 13 94 23 84 2 -2 5 -25 7
-52z m-1123 7 c-2 -17 -8 -33 -13 -36 -5 -3 -7 5 -5 18 3 13 5 29 5 36 1 6 5
12 9 12 5 0 7 -14 4 -30z m1360 -24 c-3 -5 -9 -1 -13 10 -12 31 -10 39 5 19 8
-11 12 -24 8 -29z m425 22 c-3 -8 -6 -5 -6 6 -1 11 2 17 5 13 3 -3 4 -12 1
-19z m-1746 -11 c-10 -9 -11 -8 -5 6 3 10 9 15 12 12 3 -3 0 -11 -7 -18z m103
-41 c3 -26 0 -36 -10 -36 -10 0 -14 10 -12 33 3 60 17 62 22 3z m-104 -1 c-10
-13 -11 -18 -1 -28 10 -9 11 -8 6 6 -10 25 2 21 16 -5 6 -13 8 -20 4 -16 -4 3
-25 0 -47 -8 -23 -8 -43 -12 -45 -10 -2 2 3 19 11 37 14 32 15 32 9 5 -7 -35
13 -28 27 10 5 13 15 24 21 24 8 0 8 -5 -1 -15z m1750 -15 c0 -5 -2 -10 -4
-10 -3 0 -8 5 -11 10 -3 6 -1 10 4 10 6 0 11 -4 11 -10z m-1987 -35 c4 -8 3
-16 -1 -19 -4 -3 -9 4 -9 15 -2 23 3 25 10 4z m154 -7 c-3 -8 -6 -5 -6 6 -1
11 2 17 5 13 3 -3 4 -12 1 -19z m154 -27 c7 -18 16 -28 27 -26 9 1 11 0 5 -2
-7 -3 -13 -10 -13 -17 0 -7 -7 -13 -15 -13 -8 0 -15 6 -15 12 0 7 -3 27 -6 44
-8 39 4 41 17 2z m37 7 c-4 -12 -22 -12 -26 0 -1 5 4 9 13 9 9 0 14 -4 13 -9z
m953 -41 c-10 -9 -11 -8 -5 6 3 10 9 15 12 12 3 -3 0 -11 -7 -18z m466 -49
c-3 -7 -5 -2 -5 12 0 14 2 19 5 13 2 -7 2 -19 0 -25z m-1392 -24 c16 -21 20
-32 10 -28 -8 3 -15 10 -15 16 0 5 -4 6 -10 3 -5 -3 -10 -1 -10 5 0 6 -4 9 -8
6 -4 -2 -13 3 -19 13 -21 34 25 21 52 -15z m26 19 c13 -16 12 -17 -3 -4 -17
13 -22 21 -14 21 2 0 10 -8 17 -17z m79 -73 c9 -16 8 -18 -5 -14 -8 4 -15 12
-15 20 0 20 7 17 20 -6z m-30 -10 c0 -5 -7 -7 -15 -4 -8 4 -15 8 -15 10 0 2 7
4 15 4 8 0 15 -4 15 -10z"/>
<path d="M1965 1440 c-4 -6 -12 -7 -18 -4 -8 4 -7 2 1 -7 11 -12 14 -12 21 0
7 11 9 11 14 0 3 -9 6 -10 6 -2 1 16 -16 26 -24 13z"/>
<path d="M756 1374 c-10 -27 -7 -46 8 -41 10 4 12 -1 9 -16 -4 -18 -3 -19 6
-7 14 19 14 60 0 60 -5 0 -7 5 -4 10 3 6 2 10 -3 10 -6 0 -13 -7 -16 -16z"/>
<path d="M1361 1374 c0 -11 3 -14 6 -6 3 7 2 16 -1 19 -3 4 -6 -2 -5 -13z"/>
<path d="M1381 1332 c-1 -15 -5 -21 -13 -16 -9 5 -10 4 -3 -4 11 -12 55 -5 55
9 0 5 -6 6 -14 3 -8 -3 -16 2 -19 13 -4 14 -5 13 -6 -5z"/>
<path d="M977 1316 c-4 -10 -1 -13 8 -9 8 3 12 9 9 14 -7 12 -11 11 -17 -5z"/>
<path d="M1433 1299 c-16 -42 -16 -59 -3 -59 5 0 7 7 3 16 -3 9 0 19 6 24 7 4
11 18 9 30 -3 21 -5 19 -15 -11z"/>
<path d="M921 1306 c-8 -9 -11 -19 -7 -23 9 -9 29 13 24 27 -2 8 -8 7 -17 -4z"/>
<path d="M1389 1273 c-13 -16 -12 -17 4 -4 16 13 21 21 13 21 -2 0 -10 -8 -17
-17z"/>
<path d="M1448 1247 c-3 -19 -2 -25 4 -19 6 6 8 18 6 28 -3 14 -5 12 -10 -9z"/>
<path d="M1473 1231 c2 -28 3 -29 15 -14 14 19 12 35 -6 41 -7 2 -11 -8 -9
-27z"/>
<path d="M2910 1246 c14 -18 13 -19 -2 -13 -10 3 -18 2 -18 -3 0 -5 11 -9 23
-8 13 1 24 8 24 15 0 7 -3 11 -5 8 -3 -3 -12 1 -21 8 -14 11 -15 10 -1 -7z"/>
<path d="M2820 1225 c0 -8 4 -15 10 -15 5 0 7 7 4 15 -4 8 -8 15 -10 15 -2 0
-4 -7 -4 -15z"/>
<path d="M741 1196 c-9 -11 -7 -15 11 -19 27 -7 30 -5 22 17 -8 20 -18 20 -33
2z"/>
<path d="M1440 1200 c-9 -6 -10 -10 -3 -10 6 0 15 5 18 10 8 12 4 12 -15 0z"/>
<path d="M2867 1190 c-10 -14 -20 -19 -29 -14 -10 6 -10 4 1 -9 14 -18 36 -24
26 -7 -3 6 1 10 9 10 20 0 31 19 18 32 -6 6 -15 2 -25 -12z"/>
<path d="M548 1193 c7 -3 16 -2 19 1 4 3 -2 6 -13 5 -11 0 -14 -3 -6 -6z"/>
<path d="M1483 1192 c-9 -5 -6 -12 10 -21 19 -13 21 -12 10 1 -7 8 -10 18 -6
21 9 9 1 8 -14 -1z"/>
<path d="M1520 1174 c0 -8 5 -12 10 -9 6 4 8 11 5 16 -9 14 -15 11 -15 -7z"/>
<path d="M3322 1158 c16 -7 27 -19 25 -27 -1 -8 7 -17 18 -19 17 -4 18 -2 6
11 -7 9 -10 21 -6 27 3 5 0 10 -7 10 -7 0 -24 2 -38 5 -24 4 -24 4 2 -7z"/>
<path d="M1565 1150 c-4 -6 -10 -8 -15 -5 -4 3 -10 -1 -13 -8 -3 -8 1 -14 9
-14 8 0 14 5 14 11 0 6 5 5 12 -2 15 -15 28 -16 28 -2 0 6 -6 9 -12 8 -7 -2
-12 3 -10 10 3 15 -4 16 -13 2z"/>
<path d="M3424 1146 c-3 -8 -4 -25 -2 -38 3 -17 5 -13 9 15 5 38 2 47 -7 23z"/>
<path d="M348 1143 c29 -2 74 -2 100 0 26 2 2 3 -53 3 -55 0 -76 -1 -47 -3z"/>
<path d="M1611 1134 c0 -11 3 -14 6 -6 3 7 2 16 -1 19 -3 4 -6 -2 -5 -13z"/>
<path d="M2880 1140 c0 -5 5 -10 11 -10 5 0 7 5 4 10 -3 6 -8 10 -11 10 -2 0
-4 -4 -4 -10z"/>
<path d="M3210 1129 c0 -5 13 -9 29 -9 20 0 35 -8 45 -22 13 -18 16 -19 16 -6
0 9 -5 20 -11 24 -21 12 -79 22 -79 13z"/>
<path d="M595 1120 c3 -5 8 -10 11 -10 2 0 4 5 4 10 0 6 -5 10 -11 10 -5 0 -7
-4 -4 -10z"/>
<path d="M1535 1100 c3 -5 8 -10 11 -10 2 0 4 5 4 10 0 6 -5 10 -11 10 -5 0
-7 -4 -4 -10z"/>
<path d="M1565 1100 c-3 -5 -1 -10 4 -10 6 0 11 5 11 10 0 6 -2 10 -4 10 -3 0
-8 -4 -11 -10z"/>
<path d="M1610 1098 c0 -4 4 -8 9 -8 6 0 12 4 15 8 3 5 -1 9 -9 9 -8 0 -15 -4
-15 -9z"/>
<path d="M3321 1092 c7 -11 26 -24 44 -31 39 -14 48 -14 40 -1 -3 6 -15 10
-25 10 -10 0 -22 5 -25 10 -4 7 3 9 22 5 21 -4 23 -3 8 3 -11 5 -32 12 -48 16
-25 6 -26 5 -16 -12z"/>
<path d="M1617 1068 c7 -8 10 -18 6 -21 -3 -4 -1 -7 5 -7 22 0 22 19 0 31 -20
11 -21 10 -11 -3z"/>
<path d="M2165 1060 c-18 -8 -17 -9 8 -9 16 -1 26 3 22 9 -3 6 -7 10 -8 9 -1
0 -11 -4 -22 -9z"/>
<path d="M2236 1061 c-4 -5 3 -7 14 -4 23 6 26 13 6 13 -8 0 -17 -4 -20 -9z"/>
<path d="M1680 1028 c0 -4 4 -8 9 -8 6 0 12 4 15 8 3 5 -1 9 -9 9 -8 0 -15 -4
-15 -9z"/>
<path d="M2074 979 c-3 -5 6 -9 20 -9 31 0 34 6 6 13 -11 3 -23 1 -26 -4z"/>
<path d="M3210 921 c0 -6 4 -13 10 -16 6 -3 7 1 4 9 -7 18 -14 21 -14 7z"/>
<path d="M1988 863 c7 -3 16 -2 19 1 4 3 -2 6 -13 5 -11 0 -14 -3 -6 -6z"/>
<path d="M2088 713 c7 -3 16 -2 19 1 4 3 -2 6 -13 5 -11 0 -14 -3 -6 -6z"/>
<path d="M2050 676 c0 -2 9 -6 20 -9 11 -3 18 -1 14 4 -5 9 -34 13 -34 5z"/>
<path d="M1911 628 c-1 -22 18 -33 32 -19 8 8 7 11 -5 11 -9 0 -19 6 -21 13
-3 7 -6 6 -6 -5z"/>
</g>
</svg>
