<?xml version="1.0"?>
<svg viewBox="0 0 753.15997 491.05334" xmlns="http://www.w3.org/2000/svg" xmlns:svg="http://www.w3.org/2000/svg" version="1.1">

 <g class="layer">
  <title>Layer 1</title>
  <g id="g8" transform="matrix(1.97733 0 0 -1.97733 -179.692 610.712)">
   <g id="g10" transform="translate(-1.42109e-14 0) scale(0.1 0.1)">
    <path d="m2144.59,1951.61l-194.39,0l-0.18,-379.61l194.41,0l0.18,379.61l-0.02,0" fill="#225c66" fill-rule="nonzero" id="path12"/>
    <path d="m3466.04,2762.39l-194.43,-0.21l1.2,-1188.92l194.41,0.2l-1.18,1188.93" fill="#225c66" fill-rule="nonzero" id="path14"/>
    <path d="m2845.3,1750.71c-131.8,-0.14 -239.13,106.66 -239.27,238.09c-0.04,50.36 15.75,97.08 42.56,135.63l-1.78,1.69l-140.09,132.6c-59.53,-74.11 -95.2,-168.02 -95.1,-270.13c0.24,-238.32 194.87,-432 433.87,-431.74c111.92,0.12 218.11,42.65 299.01,119.77l-134.33,140.13c-44.61,-42.52 -103.16,-65.97 -164.87,-66.04" fill="#225c66" fill-rule="nonzero" id="path16"/>
    <path d="m4372.59,1913.63c46.84,-20.73 160.09,-79.39 160.09,-79.39l-0.02,0.07l31.51,-15.07l139.03,-66.49c3.71,16.68 5.8,33.99 5.77,51.91c-0.17,172.75 -155.14,241.31 -257.69,286.67c-57.84,25.59 -123.4,54.6 -123.42,81.6c-0.01,12.88 -0.03,36.85 39.8,48.49c51.85,15.15 130.29,-4.44 164.31,-57.76l135.18,141.68c-84.53,95.36 -228.36,139.27 -354.01,102.61c-110.96,-32.41 -179.81,-122.54 -179.69,-235.22c0.16,-153.38 138.28,-214.49 239.14,-259.1" fill="#225c66" fill-rule="nonzero" id="path18"/>
    <path d="m1589.84,2405.11l0.05,-55.88c-68.58,45.29 -150.73,71.7 -238.97,71.6c-238.87,-0.25 -433.02,-194.25 -432.78,-432.44c0.25,-238.22 194.78,-431.8 433.64,-431.54c88.25,0.09 170.34,26.68 238.83,72.12l0.06,-56.12l194.31,0l-0.83,832.46l-194.31,-0.2zm-238.25,-654.5c-131.72,-0.13 -239,106.61 -239.13,237.98c-0.14,131.36 106.93,238.34 238.65,238.48c131.73,0.14 239.01,-106.61 239.15,-237.97c0.12,-131.37 -106.94,-238.33 -238.67,-238.49" fill="#225c66" fill-rule="nonzero" id="path20"/>
    <path d="m1209.38,961.63c-19.47,-19.11 -46.65,-29.73 -74.56,-29.73c-27.92,0 -54,8.85 -73.84,27.96c-28.28,27.26 -32.33,60.88 -32.33,101.93c0,41.07 4.05,74.68 32.33,101.94c19.84,19.12 45.92,28.31 73.84,28.31c27.91,0 55.09,-9.9 74.56,-29.02c15.06,-14.86 22.78,-34.68 24.98,-54.51l-48.49,0c-1.11,10.98 -5.14,18.76 -11.75,26.55c-8.45,10.27 -23.14,15.57 -39.3,15.57c-15.07,0 -29.76,-6.01 -40.04,-16.63c-18,-18.05 -18,-49.2 -18,-72.21c0,-23 0,-54.15 18,-72.19c10.28,-10.63 24.97,-16.63 40.04,-16.63c16.16,0 30.85,5.65 39.3,15.91c6.61,7.8 10.64,16.64 11.75,27.61l48.49,0c-2.2,-19.81 -9.92,-40 -24.98,-54.86" fill="#225c66" fill-rule="nonzero" id="path22"/>
    <path d="m1454.02,960.21c-19.84,-19.1 -47.02,-28.31 -74.94,-28.31c-27.92,0 -55.09,9.21 -74.93,28.31c-28.28,27.26 -33.06,60.53 -33.06,101.58c0,41.07 4.78,74.68 33.06,101.94c19.84,19.12 47.01,28.32 74.93,28.32c27.92,0 55.1,-9.2 74.94,-28.32c28.28,-27.26 33.06,-60.87 33.06,-101.94c0,-41.05 -4.78,-74.32 -33.06,-101.58m-33.8,173.78c-10.28,10.63 -26.08,16.65 -41.14,16.65c-15.06,0 -30.84,-6.02 -41.13,-16.65c-18.01,-18.04 -18.74,-49.19 -18.74,-72.2c0,-23 0.73,-53.79 18.74,-71.84c10.29,-10.63 26.07,-16.64 41.13,-16.64c15.06,0 30.86,6.01 41.14,16.64c18,18.05 18.75,48.84 18.75,71.84c0,23.01 -0.75,54.16 -18.75,72.2" fill="#225c66" fill-rule="nonzero" id="path24"/>
    <path d="m1705.64,1187.44l0,-169.88l-111.3,169.88l-50.33,0l0,-250.94l46.65,0l0,172.37l112.78,-172.37l48.84,0l0,250.94l-46.64,0" fill="#225c66" fill-rule="nonzero" id="path26"/>
    <path d="m1992.15,958.8c-19.84,-19.11 -50.33,-26.9 -82.27,-26.9c-27.55,0 -56.58,7.08 -77.88,25.84c-15.43,13.45 -27.19,34.69 -27.19,58.4l48.49,0c0,-12.39 5.87,-23.36 13.59,-30.79c11.03,-10.63 28.65,-13.46 43.72,-13.46c17.99,0 35.26,3.54 45.17,13.46c5.88,6.02 10.28,12.03 10.28,24.06c0,18.4 -14.69,26.91 -30.85,29.74c-17.62,3.18 -40.4,3.89 -57.67,6.73c-35.99,5.66 -66.11,28.31 -66.11,70.07c0,19.82 9.18,36.46 22.77,49.55c17.26,16.29 45.92,26.55 76.41,26.55c27.91,0 55.09,-8.51 72.72,-24.42c15.43,-14.16 26.08,-32.57 26.45,-53.45l-48.48,0c-0.38,8.86 -5.15,18.4 -11.39,24.77c-8.45,8.5 -25.71,13.46 -39.67,13.46c-14.7,0 -31.59,-3.18 -42.25,-13.81c-5.51,-5.66 -8.82,-12.03 -8.82,-21.24c0,-16.27 11.04,-24.77 26.46,-27.24c16.53,-2.49 39.67,-4.26 56.56,-6.38c38.94,-5.31 71.63,-29.74 71.63,-72.56c0,-23.36 -8.82,-39.99 -21.67,-52.38" fill="#225c66" fill-rule="nonzero" id="path28"/>
    <path d="m2031.81,1187.44l0,-42.46l77.15,0l0,-208.48l47.38,0l0,208.48l77.14,0l0,42.46l-201.67,0" fill="#225c66" fill-rule="nonzero" id="path30"/>
    <path d="m2425.96,936.5l-43.35,94.86l-57.67,0l0,-94.86l-47.75,0l0,250.94l109.83,0c62.08,0 90.36,-37.51 90.36,-77.86c0,-33.62 -19.1,-60.17 -47.75,-70.44l47.75,-102.64l-51.42,0zm-38.94,210.95l-62.45,0l0,-75.03l63.19,0c26.81,0 42.24,13.44 42.24,37.16c0,20.17 -16.17,37.87 -42.98,37.87" fill="#225c66" fill-rule="nonzero" id="path32"/>
    <path d="m2625.05,931.9c-67.23,0 -102.12,41.06 -102.12,100.87l0,154.67l47.39,0l0,-153.96c0,-35.75 16.89,-60.17 54.73,-60.17c37.84,0 54.72,24.42 54.72,60.17l0,153.96l47.39,0l0,-154.67c0,-59.81 -34.89,-100.87 -102.11,-100.87" fill="#225c66" fill-rule="nonzero" id="path34"/>
    <path d="m2956.74,961.63c-19.46,-19.11 -46.65,-29.73 -74.56,-29.73c-27.92,0 -53.99,8.85 -73.84,27.96c-28.28,27.26 -32.32,60.88 -32.32,101.93c0,41.07 4.04,74.68 32.32,101.94c19.85,19.12 45.92,28.31 73.84,28.31c27.91,0 55.1,-9.9 74.56,-29.02c15.06,-14.86 22.77,-34.68 24.98,-54.51l-48.49,0c-1.09,10.98 -5.14,18.76 -11.75,26.55c-8.45,10.27 -23.14,15.57 -39.3,15.57c-15.07,0 -29.76,-6.01 -40.04,-16.63c-18,-18.05 -18,-49.2 -18,-72.21c0,-23 0,-54.15 18,-72.19c10.28,-10.63 24.97,-16.63 40.04,-16.63c16.16,0 30.85,5.65 39.3,15.91c6.61,7.8 10.66,16.64 11.75,27.61l48.49,0c-2.21,-19.81 -9.92,-40 -24.98,-54.86" fill="#225c66" fill-rule="nonzero" id="path36"/>
    <path d="m2997.87,1187.44l0,-42.46l77.15,0l0,-208.48l47.39,0l0,208.48l77.13,0l0,42.46l-201.67,0" fill="#225c66" fill-rule="nonzero" id="path38"/>
    <path d="m3401.95,960.21c-19.85,-19.1 -47.02,-28.31 -74.94,-28.31c-27.93,0 -55.09,9.21 -74.94,28.31c-28.28,27.26 -33.05,60.53 -33.05,101.58c0,41.07 4.77,74.68 33.05,101.94c19.85,19.12 47.01,28.32 74.94,28.32c27.92,0 55.09,-9.2 74.94,-28.32c28.28,-27.26 33.05,-60.87 33.05,-101.94c0,-41.05 -4.77,-74.32 -33.05,-101.58m-33.8,173.78c-10.29,10.63 -26.08,16.65 -41.14,16.65c-15.06,0 -30.85,-6.02 -41.14,-16.65c-18,-18.04 -18.73,-49.19 -18.73,-72.2c0,-23 0.73,-53.79 18.73,-71.84c10.29,-10.63 26.08,-16.64 41.14,-16.64c15.06,0 30.85,6.01 41.14,16.64c18,18.05 18.74,48.84 18.74,71.84c0,23.01 -0.74,54.16 -18.74,72.2" fill="#225c66" fill-rule="nonzero" id="path40"/>
    <path d="m3640.71,936.5l-43.35,94.86l-57.68,0l0,-94.86l-47.74,0l0,250.94l109.83,0c62.08,0 90.36,-37.51 90.36,-77.86c0,-33.62 -19.1,-60.17 -47.76,-70.44l47.76,-102.64l-51.42,0zm-38.94,210.95l-62.45,0l0,-75.03l63.17,0c26.83,0 42.26,13.44 42.26,37.16c0,20.17 -16.17,37.87 -42.98,37.87" fill="#225c66" fill-rule="nonzero" id="path42"/>
    <path d="m3806.01,1187.44l-91.46,-250.94l47.75,0l16.89,48.14l103.58,0l16.9,-48.14l49.6,0l-91.47,250.94l-51.79,0zm24.97,-55.92l37.1,-105.83l-74.2,0l37.1,105.83z" fill="#225c66" fill-rule="nonzero" id="path44"/>
    <path d="m2144.55,1988.54l-194.41,-0.21c-0.24,238.31 194,432.41 432.99,432.67l0.2,-193.87c-131.79,-0.14 -238.91,-107.18 -238.78,-238.59" fill="#828586" fill-rule="nonzero" id="path46"/>
    <path d="m2672.16,2152.74l-141.01,133.46c164.54,172.86 439.4,180.02 612.74,15.96l-133.85,-140.62c-95.58,90.47 -247.16,86.52 -337.88,-8.8" fill="#828586" fill-rule="nonzero" id="path48"/>
    <path d="m4634.06,1745.04c-0.35,-0.03 -0.53,0.01 -0.46,0.15l-119.06,56.95c-0.22,-10.57 -3.43,-30.9 -48.1,-43.94c-72.12,-21.05 -170.12,5.9 -201.76,55.46l-135.18,-141.61c70.61,-78.29 180.69,-115.32 283.53,-115.21c37.76,0.05 74.53,5.06 107.94,14.82c83.22,24.31 143.62,77.18 171.21,145.57l-58.12,27.81" fill="#828586" fill-rule="nonzero" id="path50"/>
    <path d="m3644.09,2420.88c-49.86,-0.06 -97.41,-10 -140.87,-27.85l0.22,-235.82c32.47,42.29 83.44,69.75 140.85,69.81c98,0.11 177.8,-79.31 177.9,-176.86l-0.41,-476.69l194.4,0l0.42,476.72c-0.21,204.62 -167.31,370.91 -372.51,370.69" fill="#828586" fill-rule="nonzero" id="path52"/>
   </g>
  </g>
 </g>
</svg>